<?xml version="1.0" standalone="no"?><!DOCTYPE svg PUBLIC "-//W3C//DTD SVG 1.1//EN" "http://www.w3.org/Graphics/SVG/1.1/DTD/svg11.dtd"><svg t="1638430132046" class="icon" viewBox="0 0 1024 1024" version="1.1" xmlns="http://www.w3.org/2000/svg" p-id="635" width="128" height="128" xmlns:xlink="http://www.w3.org/1999/xlink"><defs><style type="text/css"></style></defs><path d="M511.72352 573.70624m-393.12896 0a393.12896 393.12896 0 1 0 786.25792 0 393.12896 393.12896 0 1 0-786.25792 0Z" fill="#F9D4D5" p-id="636"></path><path d="M855.95136 352.98816c0 11.47392-0.95232 22.8352-2.73408 33.95584C767.88736 322.00704 646.4512 281.4464 511.68768 281.4464c-134.75328 0-256.128 40.56064-341.46304 105.43616a213.34016 213.34016 0 0 1-2.73408-33.8944c0-1.664 0-3.27168 0.05632-4.87936 85.51424-66.06848 208.02048-107.45856 344.1408-107.45856s258.688 41.38496 344.20736 107.52c0.05632 1.60768 0.05632 3.21536 0.05632 4.81792z" fill="#E8DE31" p-id="637"></path><path d="M855.89504 348.17536c-85.51424-66.13504-208.08704-107.52-344.20736-107.52s-258.62656 41.38496-344.1408 107.45856c3.33312-145.93536 156.10368-263.5008 344.1408-263.5008 188.04224-0.00512 340.87936 117.56544 344.20736 263.56224z" fill="#CC1A1C" p-id="638"></path><path d="M599.94112 246.6048c-28.544-3.92704-58.10176-5.94944-88.24832-5.94944s-59.70432 2.0224-88.24832 5.94944c6.95808-65.23904 39.90016-122.74688 88.24832-161.99168 48.34816 39.2448 81.29024 96.75264 88.24832 161.99168z" fill="#CC1A1C" p-id="639"></path><path d="M540.7744 85.56032C383.7184 95.79008 256.6912 188.2624 230.58944 307.49696c-22.72256 12.12928-43.8272 25.74848-63.04256 40.61696 3.33312-145.93536 156.10368-263.5008 344.1408-263.5008a422.7584 422.7584 0 0 1 29.08672 0.9472z" fill="#E8DE31" p-id="640"></path><path d="M482.6624 85.56032c157.056 10.22976 284.08832 102.70208 310.1952 221.93664 22.71744 12.12928 43.8272 25.74848 63.04256 40.61696-3.33312-145.93536-156.1088-263.5008-344.15104-263.5008a422.8608 422.8608 0 0 0-29.08672 0.9472z" fill="#E8DE31" p-id="641"></path><path d="M742.4768 221.39904c-20.49024 22.61504-33.13152 53.48352-33.13152 87.54176 0 69.34016 52.32128 125.55264 116.85888 125.55264 45.32224 0 84.57728-27.72992 103.96672-68.23936l-187.69408-144.85504z" fill="#F3A799" p-id="642"></path><path d="M755.85536 197.61152c-20.49024 22.61504-33.13152 53.48864-33.13152 87.54176 0 69.34016 52.32128 125.55264 116.85888 125.55264 45.32224 0 84.57728-27.72992 103.96672-68.23936l-187.69408-144.85504z" fill="#F9D4D5" p-id="643"></path><path d="M101.43744 400.02048C124.05248 420.51072 154.92096 433.152 188.9792 433.152c69.34016 0 125.55264-52.32128 125.55264-116.864 0-45.31712-27.72992-84.57216-68.23936-103.96672l-144.85504 187.6992z" fill="#F3A799" p-id="644"></path><path d="M77.64992 386.64192c22.61504 20.49024 53.48352 33.13152 87.54176 33.13152 69.34016 0 125.55264-52.32128 125.55264-116.864 0-45.31712-27.72992-84.57728-68.23936-103.96672l-144.85504 187.6992z" fill="#F9D4D5" p-id="645"></path><path d="M599.94112 246.6048c-28.544-3.92704-58.10176-5.94944-88.24832-5.94944s-59.70432 2.0224-88.24832 5.94944c6.95808-65.23904 39.90016-122.74688 88.24832-161.99168 48.34816 39.2448 81.29024 96.75264 88.24832 161.99168z" fill="#B91C22" p-id="646"></path><path d="M511.68768 84.608m-30.3104 0a30.3104 30.3104 0 1 0 60.6208 0 30.3104 30.3104 0 1 0-60.6208 0Z" fill="#E8DE31" p-id="647"></path><path d="M314.52672 542.10048m-21.4272 0a21.4272 21.4272 0 1 0 42.8544 0 21.4272 21.4272 0 1 0-42.8544 0Z" p-id="648"></path><path d="M709.33504 542.10048m-21.4272 0a21.4272 21.4272 0 1 0 42.8544 0 21.4272 21.4272 0 1 0-42.8544 0Z" p-id="649"></path><path d="M669.824 664.93952c0 35.81952-29.03552 64.85504-64.85504 64.85504H416.9216c-35.81952 0-64.85504-29.03552-64.85504-64.85504 0-35.81952 29.03552-64.86016 64.85504-64.86016h188.05248c35.8144 0 64.84992 29.04064 64.84992 64.86016z" fill="#F29C7F" p-id="650"></path><path d="M436.30592 664.93952a28.24704 17.09568 90 1 0 34.19136 0 28.24704 17.09568 90 1 0-34.19136 0Z" fill="#611714" p-id="651"></path><path d="M565.00736 664.93952a28.24704 17.09568 90 1 0 34.19136 0 28.24704 17.09568 90 1 0-34.19136 0Z" fill="#611714" p-id="652"></path><path d="M479.55968 790.87104c5.376 20.44928 17.75104 34.76992 32.15872 34.76992 14.4128 0 26.78272-14.32064 32.16384-34.76992H479.55968z" fill="#611714" p-id="653"></path></svg>