<?xml version="1.0" standalone="no"?><!DOCTYPE svg PUBLIC "-//W3C//DTD SVG 1.1//EN" "http://www.w3.org/Graphics/SVG/1.1/DTD/svg11.dtd"><svg t="1638430198939" class="icon" viewBox="0 0 1700 1024" version="1.1" xmlns="http://www.w3.org/2000/svg" p-id="1622" xmlns:xlink="http://www.w3.org/1999/xlink" width="212.5" height="128"><defs><style type="text/css"></style></defs><path d="M50.224762 323.291429C11.215238 355.718095 0 416.914286 0 460.068571v88.015239l30.47619 24.380952v-88.015238a219.428571 219.428571 0 0 1 26.331429-97.52381 382.537143 382.537143 0 0 0-4.87619 60.708572c0 51.687619 42.179048 156.281905 48.761904 170.666666L13.897143 720.944762l20.48 299.154286V1024H141.409524v-16.091429l-24.380953-141.409523 9.264762-29.257143 76.556191-43.398095L287.451429 1024h106.788571v-15.60381l-73.142857-142.87238 1.462857-28.769524 111.664762-73.142857 38.765714-115.809524h90.209524l235.032381 39.253333v37.059048l93.866667 297.447619v2.194285H999.619048v-15.603809l-53.638096-142.628571v-30.232381l25.6-75.093334L1110.064762 1024h106.544762v-16.579048l-85.577143-142.384762-5.12-29.988571 18.773333-114.590476 56.807619-117.028572a117.028571 117.028571 0 0 0 48.761905 11.215239H1292.190476a300.373333 300.373333 0 0 0 151.893334-43.885715l56.32-21.211428 118.491428 30.47619 80.700952-185.295238v-2.925714l-55.100952-19.504762-11.702857 9.752381-41.935238-20.72381a258.925714 258.925714 0 0 0-1.950476-87.04L1571.59619 243.809524l-1.950476 7.314286a424.96 424.96 0 0 1-28.038095 83.139047l-85.089524-48.761905-69.485714-76.55619L1365.333333 170.666667 1434.575238 4.144762l1.706667-4.144762h-38.034286l-54.369524 27.550476 9.752381-24.380952 1.706667-3.169524H1316.571429l-43.885715 24.380952h-365.714285L585.142857 71.43619h-157.988571c-146.285714 0-268.190476 73.142857-330.118096 193.584762a177.980952 177.980952 0 0 1-46.811428 58.270477z" fill="#626277" p-id="1623"></path></svg>